Coordinates
version=1
nRows=19
nColumns=63
inDegrees=yes

Units are S.I. units (second, meters, Newtons, ...)
If the header above contains a line with 'inDegrees', this indicates whether rotational values are in degrees (yes) or radians (no).

endheader
time	pelvis_tilt	pelvis_list	pelvis_rotation	pelvis_tx	pelvis_ty	pelvis_tz	hip_flexion_r	hip_adduction_r	hip_rotation_r	knee_angle_r	knee_angle_r_beta	ankle_angle_r	subtalar_angle_r	mtp_angle_r	hip_flexion_l	hip_adduction_l	hip_rotation_l	knee_angle_l	knee_angle_l_beta	ankle_angle_l	subtalar_angle_l	mtp_angle_l	L5_S1_Flex_Ext	L5_S1_Lat_Bending	L5_S1_axial_rotation	L4_L5_Flex_Ext	L4_L5_Lat_Bending	L4_L5_axial_rotation	L3_L4_Flex_Ext	L3_L4_Lat_Bending	L3_L4_axial_rotation	L2_L3_Flex_Ext	L2_L3_Lat_Bending	L2_L3_axial_rotation	L1_L2_Flex_Ext	L1_L2_Lat_Bending	L1_L2_axial_rotation	L1_T12_Flex_Ext	L1_T12_Lat_Bending	L1_T12_axial_rotation	Abs_r3	Abs_r2	Abs_r1	Abs_t1	Abs_t2	neck_flexion	neck_bending	neck_rotation	arm_flex_r	arm_add_r	arm_rot_r	elbow_flex_r	pro_sup_r	wrist_flex_r	wrist_dev_r	arm_flex_l	arm_add_l	arm_rot_l	elbow_flex_l	pro_sup_l	wrist_flex_l	wrist_dev_l
4.565217	4.506531	2.022334	83.515144	0.259224	0.792634	0.567196	-7.140986	4.832714	19.613230	3.802058	0.066358	22.171404	-11.997328	0.000000	-8.587770	-6.166911	-14.209472	5.208445	0.090905	33.350608	1.733161	0.000000	-0.596052	1.242856	-0.596205	-1.106929	1.652998	-0.633468	-0.979255	3.021879	-0.633468	-0.681228	3.021879	-0.521679	-0.553494	2.534431	-0.484416	-0.340584	1.925184	-0.447154	-4.257543	14.059432	-3.315913	0.000000	0.000000	6.598181	-5.708971	6.427049	-9.301811	-23.768399	106.333587	8.848646	2.546038	-0.624316	-8.689989	23.947879	1.031116	145.509709	0.059830	2.250561	-8.881090	-17.140963
4.586957	4.736098	1.958384	84.151723	0.257546	0.793439	0.569042	-6.946609	5.114196	18.907735	3.938892	0.068747	22.096737	-11.765658	0.000000	-8.149324	-6.555114	-14.740503	5.385083	0.093987	33.780927	3.189785	0.000000	-0.618571	1.240945	-0.473191	-1.148749	1.650457	-0.502765	-1.016251	3.017233	-0.502765	-0.706965	3.017233	-0.414042	-0.574405	2.530535	-0.384467	-0.353452	1.922224	-0.354893	-4.418393	14.037817	-2.631744	0.000000	0.000000	7.279229	-7.081717	7.065276	-9.844278	-23.651721	104.391078	9.205915	3.050706	-0.377117	-7.695852	24.899379	2.275215	146.222565	-0.068911	1.952894	-9.255770	-18.741906
4.608696	4.955636	1.835475	84.770248	0.255690	0.793981	0.570464	-6.768983	5.367620	18.260174	3.963744	0.069180	21.950010	-11.669757	0.000000	-7.768827	-6.887334	-14.879921	5.409862	0.094420	34.009184	4.172919	0.000000	-0.627278	1.236567	-0.354937	-1.164918	1.644634	-0.377120	-1.030555	3.006589	-0.377120	-0.716916	3.006589	-0.310570	-0.582490	2.521608	-0.288386	-0.358427	1.915442	-0.266203	-4.480582	13.988294	-1.974052	0.000000	0.000000	8.059959	-8.732497	7.940761	-9.935140	-23.463053	103.895599	9.611951	3.801272	-0.236673	-6.557638	25.542371	3.394692	146.172138	-0.070310	1.766242	-9.301352	-20.011982
4.630435	5.135356	1.662416	85.401604	0.253820	0.794178	0.571345	-6.623337	5.577389	17.623055	3.877249	0.067671	21.746328	-11.698610	0.000000	-7.450021	-7.149749	-14.824076	5.297318	0.092456	34.134575	5.012677	0.000000	-0.621622	1.223348	-0.263152	-1.154413	1.627053	-0.279599	-1.021262	2.974449	-0.279599	-0.710451	2.974449	-0.230258	-0.577238	2.494652	-0.213811	-0.355195	1.894966	-0.197364	-4.440181	13.838760	-1.463574	0.000000	0.000000	8.944900	-10.607042	9.174279	-9.556746	-23.175937	104.713264	10.038653	4.302738	-0.195492	-5.448627	25.862156	4.324866	145.853709	-0.001456	1.547773	-8.930051	-20.797304
4.652174	5.254622	1.441437	86.045917	0.252063	0.793971	0.571652	-6.507809	5.729122	17.010806	3.683839	0.064295	21.499360	-11.858933	0.000000	-7.200304	-7.322578	-14.253336	5.032931	0.087841	34.050309	5.231256	0.000000	-0.601364	1.196159	-0.205976	-1.116793	1.590891	-0.218849	-0.987981	2.908340	-0.218849	-0.687299	2.908340	-0.180229	-0.558427	2.439207	-0.167355	-0.343619	1.852850	-0.154482	-4.295484	13.531186	-1.145575	0.000000	0.000000	9.912140	-12.626497	10.699497	-8.752561	-22.797608	106.220636	10.491484	4.748555	-0.261389	-4.503429	25.854119	4.989236	145.138936	0.177651	1.290682	-8.154549	-21.048706
4.673913	5.304579	1.178800	86.695960	0.250491	0.793367	0.571416	-6.418386	5.814790	16.446375	3.392541	0.059211	21.224543	-12.150756	0.000000	-7.015939	-7.398473	-13.218982	4.629654	0.080803	33.771860	4.869614	0.000000	-0.566886	1.152089	-0.186260	-1.052763	1.532279	-0.197901	-0.931337	2.801190	-0.197901	-0.647894	2.801190	-0.162977	-0.526410	2.349340	-0.151336	-0.323919	1.784586	-0.139695	-4.049208	13.032664	-1.035921	0.000000	0.000000	10.872977	-14.595622	12.464216	-7.568273	-22.303311	108.411464	10.913393	4.995908	-0.376591	-3.820195	25.505746	5.334348	143.928783	0.465706	1.097098	-7.015014	-20.801796
4.695652	5.265189	0.895083	87.334081	0.249142	0.792426	0.570715	-6.358496	5.809502	15.979582	3.022656	0.052755	20.954848	-12.570238	0.000000	-6.903728	-7.354188	-11.766124	4.102737	0.071606	33.296946	3.951348	0.000000	-0.521421	1.086389	-0.190734	-0.968331	1.444897	-0.202655	-0.856643	2.641446	-0.202655	-0.595932	2.641446	-0.166892	-0.484192	2.215364	-0.154971	-0.297940	1.682816	-0.143051	-3.724459	12.289448	-1.060806	0.000000	0.000000	11.706023	-16.406710	14.176102	-6.110721	-21.699093	110.649018	11.344476	5.228755	-0.551141	-3.489301	24.844043	5.325104	142.903924	0.789712	0.741379	-5.639809	-20.103037
4.717391	5.133404	0.590392	87.958835	0.248022	0.791218	0.569697	-6.306958	5.712177	15.618826	2.602505	0.045422	20.710058	-13.091694	0.000000	-6.837742	-7.190961	-9.940224	3.487139	0.060862	32.632921	2.508129	0.000000	-0.468069	0.997173	-0.213489	-0.869251	1.326241	-0.226832	-0.768991	2.424528	-0.226832	-0.534956	2.424528	-0.186802	-0.434649	2.033436	-0.173459	-0.267455	1.544622	-0.160116	-3.343372	11.280226	-1.187359	0.000000	0.000000	12.311131	-17.912025	15.710275	-4.421647	-20.957051	113.031455	11.731856	5.393885	-0.793274	-3.482979	23.911203	4.918122	142.298503	1.119210	0.391088	-4.322703	-19.066837
4.739130	4.896084	0.264046	88.580203	0.247083	0.789820	0.568527	-6.241349	5.510780	15.351979	2.163951	0.037768	20.503984	-13.713894	0.000000	-6.780237	-6.898424	-7.756315	2.839530	0.049559	31.791109	0.547892	0.000000	-0.410762	0.881962	-0.250963	-0.762827	1.173010	-0.266648	-0.674842	2.144403	-0.266648	-0.469460	2.144403	-0.219593	-0.381434	1.798497	-0.203908	-0.234710	1.366159	-0.188222	-2.934035	9.976932	-1.395782	0.000000	0.000000	12.615752	-18.993099	16.966733	-2.530083	-20.064526	115.551469	12.061222	5.512653	-1.150738	-3.747250	22.758135	4.073689	142.212483	1.425706	0.083501	-3.329698	-17.863541
4.760870	4.557644	-0.073178	89.220033	0.246257	0.788330	0.567411	-6.154370	5.216802	15.063618	1.727905	0.030158	20.355400	-14.341677	0.000000	-6.734246	-6.475096	-4.794443	2.143122	0.037405	30.664834	-2.447631	0.000000	-0.355043	0.741891	-0.301917	-0.659351	0.986715	-0.320787	-0.583301	1.803833	-0.320787	-0.405779	1.803833	-0.264177	-0.329693	1.512863	-0.245307	-0.202872	1.149189	-0.226438	-2.536039	8.392415	-1.679170	0.000000	0.000000	12.568574	-19.561639	17.923126	-0.429938	-19.114770	117.220122	12.622462	5.905165	-1.725038	-4.224534	21.470127	2.791589	143.376558	1.690201	-0.698541	-2.835079	-16.491667
4.782609	4.130189	-0.431719	89.897495	0.245472	0.786835	0.566616	-6.004025	4.839455	14.612731	1.341962	0.023422	20.317909	-14.802868	0.000000	-6.585088	-5.981656	-2.306915	1.604944	0.028012	29.669748	-4.783571	0.000000	-0.305320	0.579349	-0.363645	-0.567009	0.770534	-0.386373	-0.501610	1.408630	-0.386373	-0.348950	1.408630	-0.318189	-0.283520	1.181409	-0.295462	-0.174460	0.897412	-0.272734	-2.180867	6.553714	-2.022485	0.000000	0.000000	12.199207	-19.603934	18.528650	1.840684	-18.012135	118.731568	13.120337	6.219245	-2.328556	-4.907554	20.112353	1.134424	145.100785	1.902375	-0.622543	-2.885902	-14.960808
4.804348	3.641252	-0.818809	90.665072	0.244616	0.785403	0.566300	-5.775217	4.406208	13.998914	1.010453	0.017636	20.341709	-15.190590	0.000000	-6.275244	-5.447851	-0.232969	1.279657	0.022334	28.820675	-6.488235	0.000000	-0.262094	0.400122	-0.437539	-0.486735	0.532163	-0.464886	-0.430594	0.972858	-0.464886	-0.299547	0.972858	-0.382847	-0.243381	0.815930	-0.355501	-0.149761	0.619790	-0.328155	-1.872112	4.526265	-2.433463	0.000000	0.000000	11.539524	-19.169561	18.796749	4.198133	-16.736963	120.317246	13.393389	6.340878	-2.879214	-5.783268	18.734621	-0.806190	147.305580	2.057044	0.797088	-3.418088	-13.214429
4.826087	3.066036	-1.242500	91.465397	0.243717	0.784126	0.566549	-5.449256	3.883665	13.282110	0.757034	0.013213	20.389807	-15.533445	0.000000	-5.814990	-4.838184	1.412573	1.134491	0.019801	28.069477	-7.641395	0.000000	-0.226383	0.204128	-0.497886	-0.420417	0.271490	-0.529004	-0.371925	0.496317	-0.529004	-0.258734	0.496317	-0.435650	-0.210220	0.416258	-0.404533	-0.129355	0.316194	-0.373415	-1.617034	2.309138	-2.769094	0.000000	0.000000	10.709614	-18.397992	18.609103	6.538546	-15.316552	121.801148	13.400609	6.282161	-3.283830	-6.896618	17.425097	-2.940391	150.189275	2.149204	3.603722	-4.284209	-11.191258
4.847826	2.469067	-1.707753	92.361429	0.242605	0.783051	0.567448	-5.019788	3.326407	12.397334	0.577845	0.010085	20.436049	-15.803092	0.000000	-5.160684	-4.212319	2.601799	1.214277	0.021193	27.477333	-8.153808	0.000000	-0.197066	0.004386	-0.555543	-0.365972	0.005833	-0.590264	-0.323760	0.010663	-0.590264	-0.225227	0.010663	-0.486100	-0.182996	0.008943	-0.451378	-0.112604	0.006793	-0.416657	-1.407625	0.049611	-3.089762	0.000000	0.000000	9.771533	-17.450088	18.053678	8.781997	-13.814828	123.126553	13.163584	6.062469	-3.587123	-8.228014	16.187370	-5.166118	153.203659	2.179176	7.317280	-5.359991	-9.030843
4.869565	1.883673	-2.209674	93.343249	0.241233	0.782225	0.569016	-4.493638	2.757829	11.375984	0.466591	0.008144	20.480499	-15.998167	0.000000	-4.317777	-3.600366	3.257983	1.520679	0.026541	27.056292	-7.959942	0.000000	-0.175083	-0.189457	-0.605428	-0.325147	-0.251977	-0.643267	-0.287644	-0.460645	-0.643267	-0.200102	-0.460645	-0.529749	-0.162582	-0.386340	-0.491910	-0.100042	-0.293468	-0.454071	-1.250600	-2.143170	-3.367208	0.000000	0.000000	8.821581	-16.386400	17.213354	10.816088	-12.295171	124.102638	12.707627	5.725113	-3.820507	-9.746277	15.056311	-7.395814	156.017704	2.141647	11.210258	-6.305525	-6.943997
4.891304	1.345867	-2.743510	94.411408	0.239513	0.781658	0.571201	-3.880695	2.201965	10.261477	0.415730	0.007256	20.526577	-16.147745	0.000000	-3.301550	-3.027611	3.389091	2.032211	0.035469	26.827977	-7.055362	0.000000	-0.160343	-0.367769	-0.648941	-0.297773	-0.489133	-0.689500	-0.263427	-0.894194	-0.689500	-0.183256	-0.894194	-0.567823	-0.148894	-0.749955	-0.527265	-0.091620	-0.569675	-0.486706	-1.145313	-4.160279	-3.609216	0.000000	0.000000	7.917439	-15.245334	16.176108	12.547106	-10.822555	124.802149	12.011805	5.281553	-3.972069	-11.368855	14.035489	-9.540380	158.011149	2.026910	15.393665	-7.029322	-5.081148
4.913043	0.879590	-3.297605	95.565495	0.237438	0.781341	0.573931	-3.194901	1.675562	9.035232	0.427189	0.007456	20.610371	-16.213089	0.000000	-2.136463	-2.509509	3.015731	2.729187	0.047633	26.809657	-5.467971	0.000000	-0.153871	-0.524543	-0.689752	-0.285754	-0.697642	-0.732861	-0.252794	-1.275374	-0.732861	-0.175859	-1.275374	-0.603533	-0.142885	-1.069648	-0.560423	-0.087922	-0.812517	-0.517314	-1.099084	-5.933735	-3.836191	0.000000	0.000000	7.081368	-14.054307	15.034693	13.961583	-9.447863	125.210190	11.137948	4.772028	-4.101325	-13.025170	13.127955	-11.547824	159.747890	1.823826	19.149612	-7.692063	-3.553413
4.934783	0.502116	-3.848581	96.792064	0.235043	0.781262	0.577063	-2.464918	1.194945	7.710321	0.498514	0.008701	20.739742	-16.208623	0.000000	-0.873525	-2.059235	2.171495	3.569282	0.062296	27.000294	-3.233443	0.000000	-0.156791	-0.657017	-0.733570	-0.291176	-0.873833	-0.779418	-0.257592	-1.597472	-0.779418	-0.179196	-1.597472	-0.641874	-0.145596	-1.339790	-0.596026	-0.089590	-1.017720	-0.550178	-1.119941	-7.432312	-4.079897	0.000000	0.000000	6.300703	-12.796760	13.895673	15.091654	-8.210126	125.509982	10.098993	4.313262	-4.231019	-14.589272	12.280114	-13.411361	160.321278	1.565176	23.426176	-8.520965	-2.400413
4.956522	0.226962	-4.376829	98.082121	0.232369	0.781389	0.580419	-1.724987	0.776457	6.391551	0.610666	0.010658	20.870237	-16.288533	0.000000	0.435945	-1.677727	1.180276	4.503684	0.078604	27.334149	-0.761304	0.000000	-0.167162	-0.763315	-0.786457	-0.310437	-1.015209	-0.835610	-0.274631	-1.855924	-0.835610	-0.191050	-1.855924	-0.688150	-0.155227	-1.556552	-0.638996	-0.095517	-1.182375	-0.589842	-1.194024	-8.634773	-4.374036	0.000000	0.000000	5.544001	-11.498502	12.784312	16.018512	-7.144985	126.188275	8.947709	3.755126	-4.393820	-15.980118	11.446957	-15.124900	160.176851	1.297681	28.269329	-9.808535	-1.482796
